<svg preserveAspectRatio="none" overflow="visible" style="display: block;" width="12" height="12" viewBox="0 0 12 12" fill="none" xmlns="http://www.w3.org/2000/svg">
<g id="Container">
<path id="Icon" d="M1.5 12C1.0875 12 0.734375 11.8531 0.440625 11.5594C0.146875 11.2656 0 10.9125 0 10.5C0 10.0875 0.146875 9.73438 0.440625 9.44063C0.734375 9.14688 1.0875 9 1.5 9C1.9125 9 2.26563 9.14688 2.55938 9.44063C2.85313 9.73438 3 10.0875 3 10.5C3 10.9125 2.85313 11.2656 2.55938 11.5594C2.26563 11.8531 1.9125 12 1.5 12V12M6 12C5.5875 12 5.23438 11.8531 4.94063 11.5594C4.64688 11.2656 4.5 10.9125 4.5 10.5C4.5 10.0875 4.64688 9.73438 4.94063 9.44063C5.23438 9.14688 5.5875 9 6 9C6.4125 9 6.76562 9.14688 7.05937 9.44063C7.35312 9.73438 7.5 10.0875 7.5 10.5C7.5 10.9125 7.35312 11.2656 7.05937 11.5594C6.76562 11.8531 6.4125 12 6 12V12M10.5 12C10.0875 12 9.73438 11.8531 9.44063 11.5594C9.14688 11.2656 9 10.9125 9 10.5C9 10.0875 9.14688 9.73438 9.44063 9.44063C9.73438 9.14688 10.0875 9 10.5 9C10.9125 9 11.2656 9.14688 11.5594 9.44063C11.8531 9.73438 12 10.0875 12 10.5C12 10.9125 11.8531 11.2656 11.5594 11.5594C11.2656 11.8531 10.9125 12 10.5 12V12M1.5 7.5C1.0875 7.5 0.734375 7.35312 0.440625 7.05937C0.146875 6.76562 0 6.4125 0 6C0 5.5875 0.146875 5.23438 0.440625 4.94063C0.734375 4.64688 1.0875 4.5 1.5 4.5C1.9125 4.5 2.26563 4.64688 2.55938 4.94063C2.85313 5.23438 3 5.5875 3 6C3 6.4125 2.85313 6.76562 2.55938 7.05937C2.26563 7.35312 1.9125 7.5 1.5 7.5V7.5M6 7.5C5.5875 7.5 5.23438 7.35312 4.94063 7.05937C4.64688 6.76562 4.5 6.4125 4.5 6C4.5 5.5875 4.64688 5.23438 4.94063 4.94063C5.23438 4.64688 5.5875 4.5 6 4.5C6.4125 4.5 6.76562 4.64688 7.05937 4.94063C7.35312 5.23438 7.5 5.5875 7.5 6C7.5 6.4125 7.35312 6.76562 7.05937 7.05937C6.76562 7.35312 6.4125 7.5 6 7.5V7.5M10.5 7.5C10.0875 7.5 9.73438 7.35312 9.44063 7.05937C9.14688 6.76562 9 6.4125 9 6C9 5.5875 9.14688 5.23438 9.44063 4.94063C9.73438 4.64688 10.0875 4.5 10.5 4.5C10.9125 4.5 11.2656 4.64688 11.5594 4.94063C11.8531 5.23438 12 5.5875 12 6C12 6.4125 11.8531 6.76562 11.5594 7.05937C11.2656 7.35312 10.9125 7.5 10.5 7.5V7.5M1.5 3C1.0875 3 0.734375 2.85313 0.440625 2.55938C0.146875 2.26563 0 1.9125 0 1.5C0 1.0875 0.146875 0.734375 0.440625 0.440625C0.734375 0.146875 1.0875 0 1.5 0C1.9125 0 2.26563 0.146875 2.55938 0.440625C2.85313 0.734375 3 1.0875 3 1.5C3 1.9125 2.85313 2.26563 2.55938 2.55938C2.26563 2.85313 1.9125 3 1.5 3V3M6 3C5.5875 3 5.23438 2.85313 4.94063 2.55938C4.64688 2.26563 4.5 1.9125 4.5 1.5C4.5 1.0875 4.64688 0.734375 4.94063 0.440625C5.23438 0.146875 5.5875 0 6 0C6.4125 0 6.76562 0.146875 7.05937 0.440625C7.35312 0.734375 7.5 1.0875 7.5 1.5C7.5 1.9125 7.35312 2.26563 7.05937 2.55938C6.76562 2.85313 6.4125 3 6 3V3M10.5 3C10.0875 3 9.73438 2.85313 9.44063 2.55938C9.14688 2.26563 9 1.9125 9 1.5C9 1.0875 9.14688 0.734375 9.44063 0.440625C9.73438 0.146875 10.0875 0 10.5 0C10.9125 0 11.2656 0.146875 11.5594 0.440625C11.8531 0.734375 12 1.0875 12 1.5C12 1.9125 11.8531 2.26563 11.5594 2.55938C11.2656 2.85313 10.9125 3 10.5 3V3" fill="white"/>
</g>
</svg>
